<svg xmlns="http://www.w3.org/2000/svg" width="325" height="500" viewBox="0 0 325 500"><rect width="100%" height="100%" fill="#DDDDDD"/><path fill="#999999" d="M64.715 237.58v1.44h-2.84v7.96h-1.74v-7.96h-2.84v-1.44h7.42Zm2.59-.26v3.71q.39-.37.85-.6.47-.22 1.1-.22.55 0 .97.18.42.19.71.52.28.34.42.8.15.47.15 1.03v4.24h-1.6v-4.24q0-.62-.28-.95-.28-.34-.86-.34-.41 0-.78.19-.36.19-.68.52v4.82h-1.61v-9.66h1.61Zm6.99 5.56h3.03q0-.31-.09-.59-.09-.28-.26-.48-.18-.21-.45-.33-.27-.12-.63-.12-.69 0-1.09.39-.4.4-.51 1.13Zm4.09.97h-4.12q.04.51.18.88.14.38.38.62.23.25.55.37.32.12.71.12.39 0 .68-.1.28-.09.49-.2.21-.11.37-.2.16-.09.31-.09.2 0 .3.15l.46.59q-.27.31-.6.52-.33.21-.69.34-.36.12-.74.18-.37.05-.72.05-.7 0-1.29-.23-.6-.23-1.04-.69-.45-.45-.7-1.11-.25-.67-.25-1.55 0-.68.22-1.28t.63-1.05q.42-.44 1.01-.7.59-.26 1.34-.26.63 0 1.17.2.53.2.91.59.39.38.6.95.22.56.22 1.28 0 .36-.08.49-.07.13-.3.13Zm6.97-.42h2.99l-1.14-3.13q-.09-.2-.18-.49t-.18-.62q-.08.33-.17.62-.1.29-.18.51l-1.14 3.11Zm2.39-5.85 3.69 9.4h-1.35q-.23 0-.37-.11-.15-.12-.22-.29l-.7-1.91h-3.89l-.7 1.91q-.06.15-.21.28-.15.12-.37.12h-1.36l3.7-9.4h1.78Zm6.02 9.4h-1.61v-6.67h.98q.31 0 .41.29l.11.5q.17-.2.36-.36.2-.16.41-.28.22-.12.47-.18.25-.07.55-.07.63 0 1.04.34.4.34.6.9.16-.33.39-.56.24-.24.52-.39.28-.15.59-.22.32-.07.64-.07.55 0 .98.17.43.16.72.49.29.32.44.79.16.47.16 1.08v4.24h-1.61v-4.24q0-.64-.28-.96-.28-.33-.82-.33-.24 0-.45.09-.22.08-.38.24-.15.16-.25.4-.09.24-.09.56v4.24h-1.61v-4.24q0-.67-.27-.98-.27-.31-.79-.31-.35 0-.65.18-.3.17-.56.47v4.88Zm12.8-1.72v-1.13q-.69.04-1.17.12-.47.09-.76.23-.28.13-.41.32-.12.18-.12.39 0 .42.25.61.25.18.65.18.5 0 .86-.18t.7-.54Zm-3.39-3.51-.29-.51q1.15-1.05 2.77-1.05.59 0 1.05.19.46.19.78.53t.48.82q.17.47.17 1.04v4.21h-.73q-.23 0-.35-.07-.12-.07-.2-.27l-.14-.49q-.25.23-.49.4-.24.18-.5.29-.26.12-.56.18-.29.06-.65.06-.42 0-.78-.11-.36-.11-.62-.34-.26-.23-.4-.57-.15-.33-.15-.78 0-.26.09-.51.08-.25.27-.47.2-.23.5-.43.31-.21.75-.35.45-.15 1.04-.25.59-.09 1.35-.11v-.39q0-.67-.28-.99-.29-.33-.83-.33-.39 0-.65.1-.25.09-.45.2-.19.11-.35.21-.16.09-.36.09-.17 0-.28-.09-.12-.09-.19-.21Zm11.26-1.44v.66q0 .17-.06.34-.06.16-.16.26l-3.16 4.17h3.28v1.24h-5.15v-.67q0-.11.05-.26.06-.16.16-.29l3.2-4.22h-3.22v-1.23h5.06Zm1.23 0h1.61v6.67h-1.61v-6.67Zm1.83-1.94q0 .21-.08.39-.08.18-.22.32-.14.13-.33.21-.19.08-.41.08-.2 0-.39-.08-.18-.08-.32-.21-.14-.14-.22-.32-.08-.18-.08-.39 0-.22.08-.41.08-.18.22-.32t.32-.22q.19-.08.39-.08.22 0 .41.08.19.08.33.22t.22.32q.08.19.08.41Zm2.81 2.23.11.53q.2-.2.43-.37.22-.18.47-.3.25-.12.54-.18.29-.07.62-.07.55 0 .97.18.42.19.71.52.28.34.43.8.14.47.14 1.03v4.24h-1.6v-4.24q0-.62-.28-.95-.28-.34-.85-.34-.42 0-.78.19-.37.19-.69.52v4.82h-1.61v-6.67h.98q.32 0 .41.29Zm8.38 2.88q.3 0 .52-.08.22-.08.37-.22.14-.15.22-.35.07-.2.07-.44 0-.49-.29-.78-.3-.29-.89-.29-.59 0-.89.29-.29.29-.29.78 0 .23.07.44.08.2.22.34.15.15.37.23.23.08.52.08Zm1.81 3.8q0-.2-.11-.32-.12-.12-.32-.19t-.47-.1q-.27-.03-.57-.05-.31-.02-.63-.03-.32-.01-.63-.05-.26.15-.43.35-.16.2-.16.47 0 .17.08.33.09.15.28.26.2.11.5.17.31.06.75.06.45 0 .77-.07.33-.06.54-.18.21-.12.31-.29.09-.17.09-.36Zm-.31-6.74h1.91v.6q0 .28-.34.35l-.6.11q.14.34.14.75 0 .5-.2.9t-.55.67q-.35.28-.83.44-.48.15-1.03.15-.19 0-.38-.02-.18-.02-.35-.05-.32.19-.32.42 0 .2.19.3.19.09.49.13.31.04.7.05.39.01.8.04.41.03.8.11.39.09.69.26.31.18.49.48.19.3.19.78 0 .44-.22.85-.22.42-.63.75-.41.32-1.02.52-.6.2-1.36.2-.76 0-1.32-.15t-.93-.39q-.37-.24-.55-.56-.18-.32-.18-.66 0-.47.28-.79.28-.31.78-.5-.27-.14-.42-.37-.16-.22-.16-.59 0-.15.06-.31.05-.16.16-.32.11-.15.27-.29.16-.14.38-.25-.51-.28-.8-.73-.28-.46-.28-1.07 0-.49.19-.89.2-.4.56-.68.35-.29.83-.44.49-.15 1.06-.15.43 0 .81.09.37.09.69.26Zm8.32 2.89h2.99l-1.15-3.13q-.08-.2-.17-.49-.09-.29-.19-.62-.08.33-.17.62-.09.29-.18.51l-1.13 3.11Zm2.38-5.85 3.69 9.4h-1.35q-.23 0-.37-.11-.14-.12-.21-.29l-.71-1.91h-3.89l-.7 1.91q-.05.15-.2.28-.15.12-.37.12h-1.37l3.7-9.4h1.78Zm8.6 7.42v-2.99q-.27-.33-.59-.46-.33-.14-.7-.14-.36 0-.65.14-.29.13-.5.41-.21.27-.32.7-.11.43-.11 1 0 .59.09 1 .1.4.27.66.18.26.43.37.25.11.57.11.5 0 .85-.2.35-.21.66-.6Zm0-7.68h1.61v9.66h-.98q-.32 0-.41-.29l-.13-.65q-.41.47-.93.75-.52.29-1.22.29-.55 0-1-.23-.46-.23-.78-.66-.33-.43-.51-1.07-.18-.64-.18-1.46 0-.74.2-1.37.2-.64.58-1.11.38-.47.9-.73.53-.26 1.19-.26.56 0 .95.17.4.18.71.48v-3.52Zm7.94 2.99h1.27l-2.65 6.67h-1.46l-2.64-6.67h1.32q.19 0 .31.09.12.08.16.21l1.28 3.56q.11.31.18.61.08.3.14.6l.14-.6q.08-.3.19-.61l1.32-3.56q.04-.13.16-.21.12-.09.28-.09Zm3.38 2.57h3.03q0-.31-.08-.59-.09-.28-.27-.48-.17-.21-.44-.33-.27-.12-.63-.12-.7 0-1.1.39-.4.4-.51 1.13Zm4.1.97h-4.13q.04.51.18.88.15.38.38.62.23.25.56.37.32.12.71.12.39 0 .67-.1.28-.09.49-.2.22-.11.38-.2.15-.09.3-.09.21 0 .3.15l.46.59q-.26.31-.59.52-.33.21-.7.34-.36.12-.73.18-.37.05-.72.05-.7 0-1.3-.23-.6-.23-1.04-.69-.44-.45-.69-1.11-.26-.67-.26-1.55 0-.68.22-1.28t.64-1.05q.41-.44 1-.7.6-.26 1.35-.26.63 0 1.16.2.53.2.92.59.38.38.6.95.22.56.22 1.28 0 .36-.08.49t-.3.13Zm2.97-3.25.11.53q.2-.2.43-.37.22-.18.47-.3.25-.12.54-.18.28-.07.62-.07.55 0 .97.18.42.19.7.52.29.34.43.8.15.47.15 1.03v4.24h-1.61v-4.24q0-.62-.28-.95-.27-.34-.85-.34-.41 0-.78.19-.36.19-.69.52v4.82h-1.6v-6.67h.98q.31 0 .41.29Zm8.16 6.48q-.87 0-1.33-.49-.47-.49-.47-1.35v-3.73h-.68q-.13 0-.22-.08-.09-.09-.09-.25v-.64l1.07-.18.34-1.82q.03-.13.12-.2t.24-.07h.83v2.1h1.78v1.14h-1.78v3.62q0 .31.15.48.15.18.42.18.15 0 .25-.04.1-.03.18-.07.07-.04.13-.07.06-.04.12-.04.07 0 .11.04.05.03.1.1l.48.78q-.35.29-.8.44-.46.15-.95.15Zm6.76-6.77h1.6v6.67h-.98q-.32 0-.4-.29l-.11-.54q-.41.42-.91.68-.49.25-1.16.25-.55 0-.96-.18-.42-.19-.71-.52-.29-.34-.43-.81-.15-.46-.15-1.02v-4.24h1.61v4.24q0 .61.28.94.28.34.85.34.41 0 .78-.19.36-.18.69-.51v-4.82Zm4.61.4.09.76q.32-.6.74-.94.43-.34 1.02-.34.46 0 .74.2l-.1 1.2q-.04.12-.1.17-.06.05-.16.05t-.29-.04q-.2-.03-.38-.03-.26 0-.47.08-.21.08-.38.22-.16.15-.29.36-.13.21-.24.47v4.11h-1.6v-6.67h.94q.25 0 .35.09.09.09.13.31Zm4.7 2.17h3.02q0-.31-.08-.59-.09-.28-.27-.48-.17-.21-.44-.33-.27-.12-.63-.12-.69 0-1.09.39-.4.4-.51 1.13Zm4.09.97h-4.13q.04.51.18.88.15.38.38.62.24.25.56.37.32.12.71.12.39 0 .67-.1.28-.09.5-.2.21-.11.37-.2.16-.09.31-.09.2 0 .29.15l.47.59q-.27.31-.6.52-.33.21-.69.34-.37.12-.74.18-.37.05-.72.05-.7 0-1.3-.23-.6-.23-1.04-.69-.44-.45-.69-1.11-.26-.67-.26-1.55 0-.68.22-1.28.23-.6.64-1.05.41-.44 1.01-.7.59-.26 1.34-.26.63 0 1.16.2.53.2.92.59.38.38.6.95.22.56.22 1.28 0 .36-.08.49t-.3.13Zm6.01-2.82-.36.58q-.07.1-.14.15-.07.04-.18.04-.12 0-.25-.07-.13-.06-.31-.14-.17-.08-.4-.15-.22-.06-.53-.06-.47 0-.74.2t-.27.52q0 .22.14.37.14.14.37.25.23.11.52.2.29.09.6.19.3.11.59.24t.52.34q.23.2.37.49.14.28.14.69 0 .48-.17.88-.17.41-.51.71-.34.29-.83.46-.5.16-1.15.16-.35 0-.67-.06-.33-.06-.63-.17-.31-.11-.56-.26-.26-.15-.45-.33l.37-.61q.07-.11.16-.17.1-.05.25-.05t.28.08q.14.09.31.18.18.1.42.18.23.09.6.09.28 0 .49-.07.2-.07.34-.18.13-.11.19-.25.06-.15.06-.31 0-.23-.14-.38t-.37-.26q-.23-.11-.52-.2-.3-.09-.61-.19t-.6-.24q-.3-.14-.53-.36-.23-.21-.37-.52-.14-.32-.14-.76 0-.41.16-.78.17-.37.48-.65.32-.27.79-.44.47-.16 1.09-.16.68 0 1.25.22.57.23.94.6Zm7.39-.82q.74 0 1.35.24.61.24 1.04.68.43.44.67 1.08.23.64.23 1.42 0 .8-.23 1.43-.24.64-.67 1.09-.43.45-1.04.69-.61.24-1.35.24-.74 0-1.36-.24-.61-.24-1.04-.69-.43-.45-.67-1.09-.24-.63-.24-1.43 0-.78.24-1.42.24-.64.67-1.08.43-.44 1.04-.68.62-.24 1.36-.24Zm0 5.63q.84 0 1.24-.56.39-.56.39-1.63 0-1.08-.39-1.65-.4-.56-1.24-.56t-1.25.56q-.4.57-.4 1.65 0 1.07.4 1.63.41.56 1.25.56Zm6.59 1.14h-1.6v-5.46l-.58-.09q-.19-.04-.3-.13-.12-.1-.12-.27v-.66h1v-.49q0-.58.17-1.03.17-.46.5-.78.32-.31.78-.48.46-.17 1.04-.17.46 0 .86.12l-.04.81q0 .09-.05.14-.04.06-.12.09-.07.03-.17.04-.1.01-.21.01-.28 0-.51.06-.22.06-.38.21-.16.16-.24.41-.08.25-.08.62v.44h1.74v1.14h-1.69v5.47Zm12.39-9.4h1.54v9.4h-.9q-.21 0-.35-.07-.14-.07-.27-.23l-4.9-6.27q.03.43.03.8v5.77h-1.54v-9.4h.92q.11 0 .19.01t.15.04q.06.03.12.08.05.06.13.15l4.92 6.29q-.02-.23-.03-.45-.01-.22-.01-.41v-5.71Zm6.33 2.63q.74 0 1.35.24.6.24 1.04.68.43.44.66 1.08.24.64.24 1.42 0 .8-.24 1.43-.23.64-.66 1.09-.44.45-1.04.69-.61.24-1.35.24-.75 0-1.36-.24-.61-.24-1.04-.69-.44-.45-.67-1.09-.24-.63-.24-1.43 0-.78.24-1.42.23-.64.67-1.08.43-.44 1.04-.68.61-.24 1.36-.24Zm0 5.63q.83 0 1.23-.56t.4-1.63q0-1.08-.4-1.65-.4-.56-1.23-.56-.85 0-1.25.56-.41.57-.41 1.65 0 1.07.41 1.63.4.56 1.25.56Zm6.12-3.58v2.99q.27.33.6.47.32.14.67.14.38 0 .67-.14.3-.13.5-.41.21-.29.32-.73.11-.43.11-1.05 0-1.09-.36-1.58-.36-.5-1.05-.5-.46 0-.8.22-.35.21-.66.59Zm0-4.94v3.81q.4-.42.89-.67.5-.25 1.13-.25.57 0 1.04.22.46.23.79.66.33.42.51 1.03.17.6.17 1.36 0 .81-.2 1.47-.2.66-.58 1.14-.37.47-.9.73-.52.26-1.17.26-.31 0-.56-.06-.25-.07-.47-.18-.21-.11-.39-.27-.18-.16-.34-.35l-.08.45q-.03.17-.13.24-.09.07-.26.07h-1.05v-9.66h1.6Zm8.72 2.89q.74 0 1.35.24.61.24 1.04.68.43.44.67 1.08.23.64.23 1.42 0 .8-.23 1.43-.24.64-.67 1.09-.43.45-1.04.69-.61.24-1.35.24-.74 0-1.35-.24-.62-.24-1.05-.69-.43-.45-.67-1.09-.23-.63-.23-1.43 0-.78.23-1.42.24-.64.67-1.08.43-.44 1.05-.68.61-.24 1.35-.24Zm0 5.63q.84 0 1.24-.56t.4-1.63q0-1.08-.4-1.65-.4-.56-1.24-.56t-1.25.56q-.4.57-.4 1.65 0 1.07.4 1.63.41.56 1.25.56Zm8.71-.84v-2.99q-.28-.33-.6-.46-.32-.14-.69-.14-.36 0-.66.14-.29.13-.5.41-.2.27-.32.7-.11.43-.11 1 0 .59.1 1 .09.4.27.66.17.26.43.37.25.11.56.11.5 0 .85-.2.36-.21.67-.6Zm0-7.68h1.6v9.66h-.98q-.32 0-.4-.29l-.14-.65q-.4.47-.92.75-.53.29-1.22.29-.55 0-1-.23-.46-.23-.79-.66-.33-.43-.5-1.07-.18-.64-.18-1.46 0-.74.2-1.37.2-.64.58-1.11.37-.47.9-.73t1.18-.26q.56 0 .96.17.4.18.71.48v-3.52Zm7.96 2.99h1.29l-3.64 8.5q-.07.17-.18.26-.12.09-.35.09h-1.2l1.25-2.68-2.7-6.17h1.42q.18 0 .29.09.11.09.16.21l1.42 3.46q.07.17.12.35.05.17.09.36.06-.19.12-.36.06-.18.13-.36l1.34-3.45q.05-.13.17-.21.12-.09.27-.09Zm-131.56 12.87v6.06q0 .79-.2 1.43-.19.64-.58 1.08-.39.45-.97.69-.57.24-1.34.24-.35 0-.69-.04-.34-.04-.71-.13.02-.26.05-.52l.04-.52q.02-.14.12-.23.09-.09.27-.09.11 0 .29.05.17.04.45.04.37 0 .65-.11.29-.1.48-.34.19-.23.29-.61.1-.37.1-.9v-6.1h1.75Zm4.7 2.63q.74 0 1.34.24.61.24 1.04.68.44.44.67 1.08.24.64.24 1.42 0 .8-.24 1.43-.23.64-.67 1.09-.43.45-1.04.69-.6.24-1.34.24-.75 0-1.36-.24-.61-.24-1.05-.69-.43-.45-.67-1.09-.23-.63-.23-1.43 0-.78.23-1.42.24-.64.67-1.08.44-.44 1.05-.68.61-.24 1.36-.24Zm0 5.63q.83 0 1.23-.56t.4-1.63q0-1.08-.4-1.65-.4-.56-1.23-.56-.85 0-1.26.56-.4.57-.4 1.65 0 1.07.4 1.63.41.56 1.26.56Zm6.12-8.52v3.71q.39-.37.86-.6.47-.22 1.1-.22.54 0 .96.18.43.19.71.52.28.34.43.8.14.47.14 1.03v4.24h-1.6v-4.24q0-.62-.28-.95-.28-.33-.85-.33-.42 0-.78.18-.37.19-.69.52v4.82h-1.61v-9.66h1.61Zm7.12 3.28.11.53q.2-.2.42-.37.23-.18.48-.3.25-.12.53-.18.29-.07.63-.07.54 0 .97.18.42.19.7.52.28.34.43.8.15.47.15 1.03v4.24h-1.61v-4.24q0-.62-.28-.95-.28-.33-.85-.33-.42 0-.78.18-.36.19-.69.52v4.82h-1.6v-6.67h.98q.31 0 .41.29Zm14.79-2.13-.43.82q-.08.14-.17.2-.09.06-.22.06t-.29-.1q-.16-.1-.38-.22-.23-.13-.52-.23-.3-.1-.7-.1-.36 0-.64.09-.27.09-.46.24-.18.16-.27.38-.09.21-.09.47 0 .34.18.56.19.22.49.37.31.16.7.28.39.13.8.27.41.14.8.32.39.19.69.47.31.28.49.69.19.41.19 1 0 .63-.22 1.19-.22.55-.64.97-.41.41-1.02.65-.6.23-1.38.23-.45 0-.89-.08-.43-.09-.83-.25-.4-.17-.75-.39-.35-.23-.63-.51l.52-.84q.06-.09.17-.15.1-.06.22-.06.16 0 .35.13.19.13.45.3.26.16.6.29.35.13.84.13.75 0 1.16-.35.41-.35.41-1.02 0-.37-.19-.6-.19-.24-.49-.4-.31-.15-.7-.26-.39-.12-.79-.25t-.79-.31q-.39-.18-.7-.47-.3-.29-.49-.73-.18-.44-.18-1.09 0-.51.2-1 .21-.48.6-.86t.96-.61q.57-.22 1.31-.22.83 0 1.53.26.71.26 1.2.73Zm3.04 8.51h-1.6v-6.67h.98q.31 0 .41.29l.1.5q.18-.2.37-.36.19-.16.41-.28.22-.12.47-.18.25-.07.55-.07.63 0 1.03.34.41.34.61.91.16-.34.39-.57.23-.24.51-.39.28-.15.6-.22.31-.07.63-.07.56 0 .98.17.43.17.73.49.29.33.44.79.15.47.15 1.08v4.24h-1.6v-4.24q0-.64-.28-.96-.28-.32-.82-.32-.25 0-.46.08-.21.08-.37.24-.16.16-.25.4-.09.24-.09.56v4.24h-1.61v-4.24q0-.67-.27-.98-.27-.3-.79-.3-.35 0-.66.17-.3.17-.56.47v4.88Zm9.34-6.67h1.61v6.67h-1.61v-6.67Zm1.83-1.94q0 .21-.09.39-.08.18-.22.32-.14.13-.33.21-.19.09-.4.09-.21 0-.39-.09-.19-.08-.33-.21-.13-.14-.21-.32-.08-.18-.08-.39 0-.22.08-.41.08-.18.21-.32.14-.14.33-.22.18-.08.39-.08.21 0 .4.08.19.08.33.22t.22.32q.09.19.09.41Zm3.64 8.71q-.87 0-1.34-.49-.46-.49-.46-1.35v-3.73h-.68q-.13 0-.22-.08-.1-.09-.1-.25v-.64l1.08-.18.33-1.82q.04-.13.13-.2t.23-.07h.83v2.1h1.79v1.14h-1.79v3.62q0 .31.16.49.15.17.42.17.15 0 .25-.04.1-.03.17-.07l.14-.07q.05-.04.11-.04.07 0 .12.04.05.03.1.1l.48.78q-.35.3-.81.44-.45.15-.94.15Zm4.22-9.76v3.71q.39-.37.86-.6.46-.22 1.09-.22.55 0 .97.18.43.19.71.52.28.34.43.8.14.47.14 1.03v4.24h-1.6v-4.24q0-.62-.28-.95-.28-.33-.85-.33-.42 0-.78.18-.37.19-.69.52v4.82h-1.61v-9.66h1.61Z"/></svg>